<mxfile host="app.diagrams.net" modified="2022-11-15T14:25:37.941Z" agent="5.0 (Windows NT 10.0; Win64; x64) AppleWebKit/537.36 (KHTML, like Gecko) Chrome/107.0.0.0 Safari/537.36" etag="qR_1oavHq7wJiAsRqfd3" version="20.5.3" type="github">
  <diagram name="Page-1" id="c4acf3e9-155e-7222-9cf6-157b1a14988f">
    <mxGraphModel dx="862" dy="482" grid="1" gridSize="10" guides="1" tooltips="1" connect="1" arrows="1" fold="1" page="1" pageScale="1" pageWidth="850" pageHeight="1100" background="none" math="0" shadow="0">
      <root>
        <mxCell id="0" />
        <mxCell id="1" parent="0" />
        <mxCell id="17acba5748e5396b-1" value="SAP" style="shape=umlFrame;whiteSpace=wrap;html=1;rounded=0;shadow=0;comic=0;labelBackgroundColor=none;strokeWidth=1;fontFamily=Verdana;fontSize=10;align=center;" parent="1" vertex="1">
          <mxGeometry x="110" y="10" width="1070" height="1080" as="geometry" />
        </mxCell>
        <mxCell id="70_RNMiI3BBhmXLgI5Te-1" value="&lt;div style=&quot;box-sizing: border-box; width: 100%; background-image: initial; background-position: initial; background-size: initial; background-repeat: initial; background-attachment: initial; background-origin: initial; background-clip: initial; padding: 2px;&quot;&gt;&lt;span style=&quot;background-color: rgb(0, 127, 255);&quot;&gt;&lt;font color=&quot;#ffffff&quot;&gt;ACDOCA&amp;nbsp;&lt;/font&gt; &amp;nbsp; &amp;nbsp; &amp;nbsp; &amp;nbsp; &amp;nbsp; &amp;nbsp; &amp;nbsp; &amp;nbsp; &amp;nbsp; &amp;nbsp; &amp;nbsp; &amp;nbsp; &amp;nbsp; &amp;nbsp; &amp;nbsp; &amp;nbsp; &amp;nbsp; &amp;nbsp;&amp;nbsp;&lt;/span&gt;&lt;/div&gt;&lt;table style=&quot;width:100%;font-size:1em;&quot; cellpadding=&quot;2&quot; cellspacing=&quot;0&quot;&gt;&lt;tbody&gt;&lt;tr&gt;&lt;td&gt;PK&lt;/td&gt;&lt;td&gt;RLDNR&lt;/td&gt;&lt;/tr&gt;&lt;tr&gt;&lt;td&gt;&lt;/td&gt;&lt;td&gt;HSL&lt;/td&gt;&lt;/tr&gt;&lt;tr&gt;&lt;td&gt;&lt;/td&gt;&lt;td&gt;MWSKZ&lt;br&gt;LIFNR&lt;br&gt;BLART&lt;br&gt;KUNNR&lt;br&gt;BUZEI&lt;br&gt;GJAHR&lt;br&gt;BELNR&lt;br&gt;RBUKRS&lt;br&gt;SCOPE&lt;br&gt;GKONT&lt;br&gt;AWREF&lt;br&gt;BUDAT&lt;br&gt;REBZJ&lt;br&gt;KOART&lt;br&gt;BLDAT&lt;br&gt;FKART&lt;br&gt;SGTXT&lt;br&gt;XTRUEREV&lt;br&gt;DRCRK&lt;br&gt;POPER&lt;br&gt;RYEAR&lt;br&gt;USNAM&lt;br&gt;BTTYPE&lt;br&gt;AWTYP&lt;br&gt;MATNR&lt;br&gt;RCNTR&lt;br&gt;PRCTR&lt;br&gt;RACCT&lt;br&gt;AUGBL&lt;br&gt;AUGDT&lt;br&gt;ZUONR&lt;br&gt;&lt;br&gt;&lt;br&gt;&lt;/td&gt;&lt;/tr&gt;&lt;/tbody&gt;&lt;/table&gt;" style="verticalAlign=top;align=left;overflow=fill;html=1;perimeterSpacing=3;glass=0;imageAspect=1;noLabel=0;backgroundOutline=0;" parent="1" vertex="1">
          <mxGeometry x="180" y="40" width="180" height="500" as="geometry" />
        </mxCell>
        <mxCell id="lS6jVRLg9FXB_DxY2pdo-7" value="&lt;div style=&quot;box-sizing: border-box; width: 100%; background-image: initial; background-position: initial; background-size: initial; background-repeat: initial; background-attachment: initial; background-origin: initial; background-clip: initial; padding: 2px;&quot;&gt;&lt;font style=&quot;background-color: rgb(0, 127, 255);&quot; color=&quot;#ffffff&quot;&gt;TOO1&amp;nbsp; &amp;nbsp; &amp;nbsp; &amp;nbsp; &amp;nbsp; &amp;nbsp; &amp;nbsp; &amp;nbsp; &amp;nbsp; &amp;nbsp; &amp;nbsp; &amp;nbsp; &amp;nbsp; &amp;nbsp; &amp;nbsp; &amp;nbsp; &amp;nbsp; &amp;nbsp; &amp;nbsp; &amp;nbsp; &amp;nbsp; &amp;nbsp;&lt;/font&gt;&lt;/div&gt;&lt;table style=&quot;width:100%;font-size:1em;&quot; cellpadding=&quot;2&quot; cellspacing=&quot;0&quot;&gt;&lt;tbody&gt;&lt;tr&gt;&lt;td&gt;&lt;br&gt;&lt;/td&gt;&lt;td&gt;MANDT&lt;/td&gt;&lt;/tr&gt;&lt;tr&gt;&lt;td&gt;&lt;span style=&quot;white-space: pre;&quot;&gt; &lt;/span&gt;&lt;br&gt;&lt;/td&gt;&lt;td&gt;BUKRS&lt;/td&gt;&lt;/tr&gt;&lt;tr&gt;&lt;td&gt;&lt;/td&gt;&lt;td&gt;BUTXT&lt;/td&gt;&lt;/tr&gt;&lt;/tbody&gt;&lt;/table&gt;" style="verticalAlign=top;align=left;overflow=fill;html=1;" parent="1" vertex="1">
          <mxGeometry x="490" y="30" width="180" height="90" as="geometry" />
        </mxCell>
        <mxCell id="lS6jVRLg9FXB_DxY2pdo-9" value="RBUKRS - BUKRS" style="endArrow=open;html=1;endSize=12;startArrow=open;startSize=14;startFill=0;edgeStyle=orthogonalEdgeStyle;rounded=0;entryX=0;entryY=0.5;entryDx=0;entryDy=0;" parent="1" target="lS6jVRLg9FXB_DxY2pdo-7" edge="1" source="70_RNMiI3BBhmXLgI5Te-1">
          <mxGeometry x="0.04" y="20" relative="1" as="geometry">
            <mxPoint x="360" y="230" as="sourcePoint" />
            <mxPoint x="520" y="230" as="targetPoint" />
            <Array as="points">
              <mxPoint x="408" y="110" />
              <mxPoint x="408" y="75" />
            </Array>
            <mxPoint as="offset" />
          </mxGeometry>
        </mxCell>
        <mxCell id="2_QPEHUpGbX-dK58taye-1" value="&lt;div style=&quot;box-sizing: border-box; width: 100%; background-image: initial; background-position: initial; background-size: initial; background-repeat: initial; background-attachment: initial; background-origin: initial; background-clip: initial; padding: 2px;&quot;&gt;&lt;font style=&quot;background-color: rgb(0, 127, 255);&quot; color=&quot;#ffffff&quot;&gt;SKAT&amp;nbsp; &amp;nbsp; &amp;nbsp; &amp;nbsp; &amp;nbsp; &amp;nbsp; &amp;nbsp; &amp;nbsp; &amp;nbsp; &amp;nbsp; &amp;nbsp; &amp;nbsp; &amp;nbsp; &amp;nbsp; &amp;nbsp; &amp;nbsp; &amp;nbsp; &amp;nbsp; &amp;nbsp; &amp;nbsp; &amp;nbsp; &amp;nbsp;&lt;/font&gt;&lt;/div&gt;&lt;table style=&quot;width:100%;font-size:1em;&quot; cellpadding=&quot;2&quot; cellspacing=&quot;0&quot;&gt;&lt;tbody&gt;&lt;tr&gt;&lt;td&gt;&lt;br&gt;&lt;/td&gt;&lt;td&gt;MANDT&lt;/td&gt;&lt;/tr&gt;&lt;tr&gt;&lt;td&gt;&lt;span style=&quot;white-space: pre;&quot;&gt; &lt;/span&gt;&lt;br&gt;&lt;/td&gt;&lt;td&gt;SAKNR&lt;br&gt;SPRAS&lt;br&gt;KTOPL&lt;br&gt;TXT20&lt;br&gt;TXT50&lt;/td&gt;&lt;/tr&gt;&lt;tr&gt;&lt;td&gt;&lt;/td&gt;&lt;td&gt;&lt;br&gt;&lt;/td&gt;&lt;/tr&gt;&lt;/tbody&gt;&lt;/table&gt;" style="verticalAlign=top;align=left;overflow=fill;html=1;" vertex="1" parent="1">
          <mxGeometry x="710" y="30" width="180" height="120" as="geometry" />
        </mxCell>
        <mxCell id="2_QPEHUpGbX-dK58taye-3" value="CUENTA" style="endArrow=open;html=1;endSize=12;startArrow=open;startSize=14;startFill=0;edgeStyle=orthogonalEdgeStyle;rounded=0;entryX=0;entryY=0.5;entryDx=0;entryDy=0;exitX=1;exitY=0.25;exitDx=0;exitDy=0;" edge="1" parent="1" source="70_RNMiI3BBhmXLgI5Te-1" target="2_QPEHUpGbX-dK58taye-1">
          <mxGeometry relative="1" as="geometry">
            <mxPoint x="360" y="285" as="sourcePoint" />
            <mxPoint x="630" y="210" as="targetPoint" />
            <Array as="points">
              <mxPoint x="525" y="164" />
              <mxPoint x="525" y="150" />
              <mxPoint x="690" y="150" />
            </Array>
          </mxGeometry>
        </mxCell>
        <mxCell id="2_QPEHUpGbX-dK58taye-5" value="&lt;div style=&quot;box-sizing: border-box; width: 100%; background-image: initial; background-position: initial; background-size: initial; background-repeat: initial; background-attachment: initial; background-origin: initial; background-clip: initial; padding: 2px;&quot;&gt;&lt;font style=&quot;background-color: rgb(0, 127, 255);&quot; color=&quot;#ffffff&quot;&gt;CEPCT&amp;nbsp; &amp;nbsp; &amp;nbsp; &amp;nbsp; &amp;nbsp; &amp;nbsp; &amp;nbsp; &amp;nbsp; &amp;nbsp; &amp;nbsp; &amp;nbsp; &amp;nbsp; &amp;nbsp; &amp;nbsp; &amp;nbsp; &amp;nbsp; &amp;nbsp; &amp;nbsp; &amp;nbsp; &amp;nbsp;&amp;nbsp;&lt;/font&gt;&lt;/div&gt;&lt;table style=&quot;width:100%;font-size:1em;&quot; cellpadding=&quot;2&quot; cellspacing=&quot;0&quot;&gt;&lt;tbody&gt;&lt;tr&gt;&lt;td&gt;&lt;br&gt;&lt;/td&gt;&lt;td&gt;MANDT&lt;/td&gt;&lt;/tr&gt;&lt;tr&gt;&lt;td&gt;&lt;span style=&quot;white-space: pre;&quot;&gt; &lt;/span&gt;&lt;br&gt;&lt;/td&gt;&lt;td&gt;SPRAS&lt;br&gt;KOKRS&lt;br&gt;PRCTR&lt;br&gt;LTEXT&lt;br&gt;&lt;br&gt;&lt;/td&gt;&lt;/tr&gt;&lt;/tbody&gt;&lt;/table&gt;" style="verticalAlign=top;align=left;overflow=fill;html=1;" vertex="1" parent="1">
          <mxGeometry x="940" y="30" width="180" height="120" as="geometry" />
        </mxCell>
        <mxCell id="2_QPEHUpGbX-dK58taye-7" value="PRCTR" style="endArrow=open;html=1;endSize=12;startArrow=open;startSize=14;startFill=0;edgeStyle=orthogonalEdgeStyle;rounded=0;exitX=0.984;exitY=0.401;exitDx=0;exitDy=0;exitPerimeter=0;entryX=0;entryY=0.5;entryDx=0;entryDy=0;" edge="1" parent="1" source="70_RNMiI3BBhmXLgI5Te-1" target="2_QPEHUpGbX-dK58taye-5">
          <mxGeometry x="0.0135" relative="1" as="geometry">
            <mxPoint x="373" y="173.5" as="sourcePoint" />
            <mxPoint x="720" y="100" as="targetPoint" />
            <Array as="points">
              <mxPoint x="535" y="240" />
              <mxPoint x="535" y="200" />
              <mxPoint x="900" y="200" />
              <mxPoint x="900" y="90" />
            </Array>
            <mxPoint as="offset" />
          </mxGeometry>
        </mxCell>
      </root>
    </mxGraphModel>
  </diagram>
</mxfile>
